PathFileType	4	(X/Y/Z)	Kaydara	
DataRate	CameraRate	NumFrames	NumMarkers	Units	OrigDataRate	OrigDataStartFrame	OrigNumFrames	
60.00	60.00	4	74	mm	60.00	2631	161	
Frame#	Time	Z_lasi			Z_rasi			Z_rpsi			Z_lpsi			Z_fneck			Z_bneck			Z_fhead			Z_rhead			Z_lhead			Z_rshld			Z_relbtop			Z_relbext			Z_relblow			Z_rwrext			Z_rwrtop			Z_rwrlow			Z_lshld			Z_lelbext			Z_lelblow			Z_lelbtop			Z_lwrext			Z_lwrtop			Z_rtopleg			Z_ltopleg			Z_rkneefr			Z_rkneebk			Z_rkneeis			Z_lkneefr			Z_lknssbk			Z_lkneeis			Z_rankfr			Z_rankis			Z_rankbk			Z_lankfr			Z_lankbk			Z_lankis			A_lasi			A_rasi			A_rpsi			A_lpsi			A_fneck			A_bneck			A_fhead			A_rhead			A_lhead			A_rshld			A_relbtop			A_relbext			A_relblow			A_rwrext			A_rwrtop			A_rwrlow			A_lshld			A_lelbext			A_lelblow			A_lelbtop			A_lwrext			A_lwrtop			A_lwrlow			A_rtopleg			A_ltopleg			A_rkneefr			A_rkneebk			A_rkneeis			A_lkneefr			A_lknssbk			A_lkneeis			A_rankfr			A_rankis			A_rankbk			A_lankfr			A_lankbk			A_lankis			Z_lwrlow			
		X1	Y1	Z1	X2	Y2	Z2	X3	Y3	Z3	X4	Y4	Z4	X5	Y5	Z5	X6	Y6	Z6	X7	Y7	Z7	X8	Y8	Z8	X9	Y9	Z9	X10	Y10	Z10	X11	Y11	Z11	X12	Y12	Z12	X13	Y13	Z13	X14	Y14	Z14	X15	Y15	Z15	X16	Y16	Z16	X17	Y17	Z17	X18	Y18	Z18	X19	Y19	Z19	X20	Y20	Z20	X21	Y21	Z21	X22	Y22	Z22	X23	Y23	Z23	X24	Y24	Z24	X25	Y25	Z25	X26	Y26	Z26	X27	Y27	Z27	X28	Y28	Z28	X29	Y29	Z29	X30	Y30	Z30	X31	Y31	Z31	X32	Y32	Z32	X33	Y33	Z33	X34	Y34	Z34	X35	Y35	Z35	X36	Y36	Z36	X37	Y37	Z37	X38	Y38	Z38	X39	Y39	Z39	X40	Y40	Z40	X41	Y41	Z41	X42	Y42	Z42	X43	Y43	Z43	X44	Y44	Z44	X45	Y45	Z45	X46	Y46	Z46	X47	Y47	Z47	X48	Y48	Z48	X49	Y49	Z49	X50	Y50	Z50	X51	Y51	Z51	X52	Y52	Z52	X53	Y53	Z53	X54	Y54	Z54	X55	Y55	Z55	X56	Y56	Z56	X57	Y57	Z57	X58	Y58	Z58	X59	Y59	Z59	X60	Y60	Z60	X61	Y61	Z61	X62	Y62	Z62	X63	Y63	Z63	X64	Y64	Z64	X65	Y65	Z65	X66	Y66	Z66	X67	Y67	Z67	X68	Y68	Z68	X69	Y69	Z69	X70	Y70	Z70	X71	Y71	Z71	X72	Y72	Z72	X73	Y73	Z73	X74	Y74	Z74	

21	43.833	-794.42284	1094.77562	-404.85680	-879.46365	1097.81998	-213.40893	-1069.33266	1118.17375	-263.35939	-970.98030	1114.68338	-492.59705	-885.49080	1455.23178	-314.89801	-980.34409	1508.08975	-378.30528	-857.59918	1681.73325	-266.21868	-1017.88750	1641.84860	-292.36248	-932.96280	1642.96432	-413.65532	-1060.73303	1439.89899	-179.60819	-1057.23930	1131.66405	-85.60816	-1131.31950	1099.79332	-93.90348	-1110.36354	1083.31902	-152.29618	-1005.05150	926.84517	-19.17681	-967.23808	952.32559	-19.39262	-958.92708	945.02373	-61.56136	-857.70317	1452.68890	-515.28767	-846.74210	1134.88121	-626.17207	-861.19835	1116.45294	-554.47617	-781.18233	1143.90251	-588.43880	-724.75403	908.43330	-518.35732	-707.75627	902.01752	-563.00602	-1063.40729	918.04230	-211.02404	-831.65009	901.82480	-498.28583	-960.23079	416.48685	-254.41372	-1046.77116	443.65154	-263.90318	-955.76828	435.76782	-349.82208	-784.21677	432.56813	-454.08287	-875.02045	461.25141	-503.61385	-847.91374	425.22839	-383.65665	-990.86159	177.61217	-287.80802	-964.49806	181.08473	-347.93770	-1048.36792	174.59824	-335.77370	-840.54169	169.79179	-495.68363	-920.56335	177.11430	-490.29976	-870.29007	175.74932	-432.49462	227.13577	1039.08691	294.86485	265.72884	1049.49516	142.33836	426.31523	1051.70914	173.38715	346.10733	1052.03987	342.07729	287.38722	1379.31213	225.18011	423.17204	1420.26321	250.14952	240.94639	1601.23230	206.46307	403.16387	1568.52768	160.34737	361.17359	1555.14404	317.58966	408.32111	1358.97034	73.90431	326.49452	1103.83751	17.44026	332.87991	1047.03171	51.48454	286.59399	1110.67940	61.16897	149.21493	1184.44092	-77.11658	118.22585	1160.37430	-55.31045	154.93656	1213.36166	-47.07678	273.50485	1376.76727	382.55955	242.21199	1079.54323	444.68208	290.77412	1067.35466	438.53386	238.81701	1073.13683	390.81516	172.43706	855.70961	428.50609	138.57045	872.00066	400.59658	191.74406	858.45291	388.36575	398.09864	885.29175	76.48598	254.77936	884.33441	391.20163	381.23379	416.35098	211.68409	433.88523	455.97305	124.08754	335.62511	410.62340	111.05088	372.18166	455.57137	248.37507	337.80304	475.24666	363.64304	272.40490	424.09004	271.95919	390.02571	173.52591	101.48811	392.08645	165.42484	172.50019	465.32452	162.34747	130.79455	312.27108	169.39388	300.11444	359.94831	167.90285	351.91017	383.50292	175.77755	268.74599	-749.02725	893.72765	-582.47040 
22	43.850	-793.01750	1094.99374	-405.75233	-878.50662	1098.34373	-214.58172	-1068.36937	1118.24631	-264.62181	-969.55414	1114.42314	-493.82515	-884.14581	1455.71213	-317.67586	-979.06075	1507.92755	-381.22242	-857.13593	1682.65457	-269.98177	-1017.15698	1641.96136	-296.38250	-931.90804	1642.65274	-417.39464	-1060.15602	1440.75134	-182.82089	-1057.95685	1135.96336	-83.65499	-1131.34247	1101.87149	-91.89247	-1109.53430	1084.71794	-149.76718	-1000.14618	934.43909	-12.93620	-963.18321	961.24443	-12.93802	-954.30901	953.75626	-54.80932	-856.50253	1451.86615	-518.10314	-845.02861	1133.42201	-627.18525	-859.93820	1115.66093	-555.55744	-779.62524	1142.88956	-589.27807	-723.06671	908.18832	-517.16003	-705.78110	901.39511	-561.70731	-1062.21977	918.07465	-211.87363	-829.88075	901.98112	-498.81828	-959.37218	416.39744	-254.55059	-1045.80612	443.87474	-264.12619	-954.56627	435.70183	-349.81514	-784.85970	432.57519	-454.52087	-875.39612	461.22715	-504.45045	-848.68851	425.16155	-383.92365	-990.59181	177.67189	-287.92902	-964.06906	180.99112	-348.17558	-1048.02338	174.79254	-335.90641	-840.64339	169.65899	-495.77477	-920.62263	176.82350	-490.69523	-870.71228	175.64196	-432.78561	226.98353	1039.20258	295.59322	265.02583	1049.97620	142.76703	425.77892	1051.88606	173.38362	346.16867	1052.14012	341.91959	288.12054	1379.71664	225.84522	423.90533	1420.66772	250.81465	241.68194	1601.38489	205.26056	403.88760	1568.45932	159.33916	361.96705	1556.53214	316.75697	408.05767	1360.42282	74.71831	319.61037	1109.88976	14.21662	323.13831	1051.99974	47.43754	279.26611	1117.81960	57.29766	153.15272	1203.74001	-81.37005	118.58934	1180.50377	-64.63768	157.03015	1230.63072	-49.40548	274.71460	1376.75354	383.37799	242.68562	1079.47632	445.15018	291.29774	1067.30774	438.73230	239.17826	1073.12363	391.24973	172.43345	855.75974	429.05155	138.69841	872.08023	401.16562	191.66773	858.36800	388.41457	397.82749	885.35271	76.71457	255.22718	883.97057	391.97613	381.90681	416.43620	212.07485	434.48097	455.96363	124.21721	336.11115	410.68398	111.30827	372.58858	455.56431	248.74773	338.38978	475.23621	364.15867	272.76981	424.10713	272.35806	390.19081	173.57777	101.59817	392.28588	165.43213	172.57448	465.49538	162.26538	130.80844	312.49712	169.41664	300.32310	360.15625	167.79617	352.00615	383.64487	175.75708	268.88985	-747.10365	892.81448	-581.28700 
23	43.867	-791.58371	1095.26367	-406.69235	-877.19856	1099.12979	-215.64264	-1067.64664	1118.34511	-265.91251	-968.14018	1114.12003	-495.10063	-882.86026	1456.09100	-320.12672	-977.72690	1507.76520	-383.99918	-856.56357	1683.47443	-273.54773	-1016.59195	1642.05276	-300.16193	-930.59944	1642.32391	-420.99388	-1059.64737	1441.56235	-185.99789	-1058.94485	1140.56129	-81.62475	-1131.56998	1104.04648	-89.70797	-1108.73520	1086.20522	-146.96075	-995.07065	943.08823	-6.26114	-959.15657	971.52687	-5.86916	-949.12834	963.85406	-47.55173	-855.13100	1451.19522	-520.67150	-843.23830	1132.18948	-628.25752	-857.88162	1114.65309	-556.29616	-777.95036	1141.91673	-590.23682	-721.11382	908.06229	-516.05816	-703.91434	900.90714	-560.37689	-1059.51904	917.89711	-214.52072	-828.13904	902.13623	-499.18823	-958.70903	416.39034	-254.15272	-1044.73228	444.06681	-264.30414	-953.42552	435.66956	-349.83143	-785.61478	432.53189	-454.69666	-875.86372	461.21696	-505.00481	-849.67476	425.10864	-383.89641	-990.34988	177.73808	-287.99505	-963.72345	180.94975	-348.17497	-1047.70180	174.99941	-336.09108	-840.74821	169.53403	-495.79956	-920.79697	176.49263	-490.99983	-870.96077	175.59500	-432.52373	226.96260	1039.16298	296.09653	264.37277	1050.17250	143.11636	425.17914	1052.04552	173.18184	346.22322	1052.01065	341.21548	288.63266	1380.05692	226.65163	424.41750	1421.00800	251.62106	242.39948	1601.67816	204.08865	404.64409	1568.02338	158.61911	362.55810	1557.96112	315.99188	407.80167	1362.00134	75.70017	314.94526	1115.96634	9.21178	316.29292	1056.90430	40.92294	274.28411	1124.07532	52.46349	156.48944	1220.40237	-84.71817	119.77374	1198.09586	-71.65618	159.10841	1245.65453	-51.10974	276.03024	1376.59546	384.42291	243.28867	1079.16420	445.51567	291.70383	1067.04369	439.14532	239.52450	1072.92435	391.72802	172.72354	855.60249	429.66541	138.93669	871.94099	401.84158	192.11117	858.17711	389.90120	397.40757	885.39490	76.81129	255.67417	884.12521	392.03846	382.56557	416.33366	212.09183	434.97486	455.93464	124.37625	336.55598	410.68367	111.62222	372.97890	455.55107	249.19353	338.84243	475.21271	364.58218	273.17844	424.15276	272.81311	390.30361	173.61391	101.70189	392.51225	165.42356	172.69512	465.66269	162.19017	130.75702	312.63210	169.46037	300.45492	360.06027	167.91698	352.26398	383.77968	175.74646	269.04034	-745.03677	892.03812	-580.16590 
24	43.883	-789.98314	1095.54268	-407.65892	-876.31226	1099.69872	-216.81965	-1066.94962	1118.29765	-267.68394	-966.50894	1113.79456	-496.37951	-881.59203	1456.38077	-322.57923	-976.27380	1507.64313	-386.83182	-856.02524	1684.27750	-276.88395	-1015.77789	1642.06482	-304.31042	-929.13368	1641.98395	-424.57687	-1059.37141	1442.18781	-189.36577	-1060.34409	1145.55916	-79.50918	-1131.83098	1106.30104	-87.43522	-1107.83890	1087.68944	-144.09792	-989.70505	953.05763	1.07261	-955.25429	983.11111	1.79091	-943.97766	975.47386	-39.55064	-853.48244	1450.74463	-523.02502	-841.25023	1131.22765	-629.29131	-856.17805	1114.04144	-557.33559	-776.16776	1141.25854	-591.03149	-719.48997	907.81532	-515.01602	-701.91376	900.54626	-559.64321	-1059.91096	918.53539	-213.72295	-826.42334	902.26707	-499.76986	-957.83440	416.30428	-254.10641	-1043.80417	444.21677	-264.46941	-952.25273	435.66746	-349.93004	-786.41037	432.55024	-454.98238	-876.46843	461.27785	-505.53368	-850.75264	425.09335	-383.92738	-990.21027	177.83520	-287.84996	-963.34740	180.88282	-348.17238	-1047.31003	175.20821	-336.16299	-840.94749	169.38604	-495.87448	-921.11610	176.25462	-491.28693	-871.65611	175.76094	-432.73537	226.73502	1039.47960	296.63061	263.52381	1050.33173	143.53148	424.54155	1052.21741	172.69100	346.28574	1051.99547	339.61273	289.07417	1380.33417	227.65705	424.85897	1421.28525	252.62648	243.22742	1601.95465	202.84344	405.51643	1567.29309	157.87760	363.09578	1559.37073	315.31404	407.51465	1363.45337	76.71278	312.19116	1122.00966	3.12366	312.49479	1061.60706	32.44260	272.14245	1129.12949	46.71478	158.87803	1234.77264	-86.83385	120.71552	1213.78151	-75.46586	161.89455	1258.53409	-52.16388	277.17178	1376.15280	385.63194	244.20715	1078.72017	445.90809	292.26524	1066.42288	439.42101	239.92798	1072.59171	392.34966	173.17669	855.24826	430.25124	139.23333	871.61812	402.59151	192.45991	857.74986	390.96657	396.78524	885.41550	76.76024	256.12028	884.14940	392.60422	383.31955	416.08929	212.12681	435.32257	455.94345	124.38523	336.93577	410.67570	111.90944	373.19199	455.51147	249.54144	339.33865	475.16743	364.96960	273.51236	424.17366	273.22533	390.38200	173.60168	101.79680	392.69871	165.40838	172.81658	465.81169	162.13432	130.62745	312.74420	169.53779	300.56583	360.27328	167.84222	352.32742	383.89679	175.74451	269.19729	-743.04802	891.36559	-579.11163 
